# xmcd
#
# Track frame offsets:
# 150
# 14046
# 27760
# 45877
# 60627
# 73450
# 91761
# 104416
# 127733
# 141933
# 158483
# 172988
# 188000
# 201579
#
# Disc length: 2872 seconds
#
#
# Revision: 0
# Processed by: cddbd v1.4PL0 Copyright (c) Steve Scherf et al.
# Submitted via: FreeRIP 2.00 
#
DISCID=b90b360e
DTITLE=Foggy Hollow - Urban Reflections
DYEAR=2002
DGENRE=Bluegrass
TTITLE0=Julie Ann
TTITLE1=On And On
TTITLE2=Walk The Way The Wind Blows
TTITLE3=Salt Creek
TTITLE4=Blueridge Cabin Home
TTITLE5=Eternity Has Begun
TTITLE6=Ashes Of Love
TTITLE7=House Of Gold
TTITLE8=Dark Hollow
TTITLE9=I Heard A Sweet Voice
TTITLE10=Carolyn The Teenage Queen
TTITLE11=Steel Rails
TTITLE12=Love Please Come Home
TTITLE13=Katy Daly
EXTD=Jeff Albright - Banjo and Vocals\nTom Boley - Guitar and Vocals\nKevin Cooke - Lead Guitar\nGary Johnson - Bass and Vocals\nGlen Williams - Mandolin and Vocals
EXTT0=
EXTT1=
EXTT2=
EXTT3=
EXTT4=
EXTT5=
EXTT6=
EXTT7=
EXTT8=
EXTT9=
EXTT10=
EXTT11=
EXTT12=
EXTT13=
PLAYORDER=
